<?xml version="1.0" encoding="iso-8859-1"?>
<!-- Generator: Adobe Illustrator 19.0.0, SVG Export Plug-In . SVG Version: 6.00 Build 0)  -->
<svg version="1.1" id="Layer_1" xmlns="http://www.w3.org/2000/svg" xmlns:xlink="http://www.w3.org/1999/xlink" x="0px" y="0px"
	 viewBox="0 0 512 512" style="enable-background:new 0 0 512 512;" xml:space="preserve">
<path style="fill:#874D20;" d="M255.997,0H256c116.314,0,211.478,95.998,211.478,213.333v85.334
	C467.478,416.002,372.314,512,256,512h-0.003c-116.314,0-211.475-95.998-211.475-213.333v-85.334C44.522,95.998,139.682,0,255.997,0
	L255.997,0z"/>
<path style="fill:#663310;" d="M467.478,213.334v85.334c0,92.409-59.032,171.569-140.93,201.038
	c-0.04-0.036-0.077-0.069-0.117-0.105c-23.6-21.182-72.707-65.26-75.378-68.188c-35.407-43.24-31.236-122.671,9.105-173.452
	c19.862-25.002,32.174-59.14,33.776-93.659c1.675-36.06-8.143-68.468-27.646-91.252c-1.562-1.824-38.872-41.156-62.855-66.334
	C220.255,2.333,237.869,0,255.997,0H256C372.314,0,467.478,95.998,467.478,213.334z"/>
<path style="fill:#391B10;" d="M233.512,352.551c-0.858,34.162,9.849,63.5,30.15,82.61c4.476,4.213,4.688,11.257,0.475,15.734
	c-2.189,2.326-5.146,3.502-8.106,3.502c-2.736,0-5.477-1.002-7.627-3.026c-24.973-23.507-38.165-58.8-37.147-99.377
	c0.948-37.756,14.325-75.562,36.698-103.725c18.98-23.891,30.119-56.583,30.562-89.69c0.454-34.002-10.24-63.032-30.114-81.739
	c-4.476-4.214-4.689-11.257-0.476-15.734c4.214-4.476,11.257-4.69,15.734-0.476c24.474,23.036,37.654,57.927,37.116,98.246
	c-0.508,37.937-13.407,75.567-35.39,103.239C245.959,286.569,234.341,319.531,233.512,352.551z"/>
<g>
</g>
<g>
</g>
<g>
</g>
<g>
</g>
<g>
</g>
<g>
</g>
<g>
</g>
<g>
</g>
<g>
</g>
<g>
</g>
<g>
</g>
<g>
</g>
<g>
</g>
<g>
</g>
<g>
</g>
</svg>
