<?xml version="1.0" encoding="iso-8859-1"?>
<!-- Generator: Adobe Illustrator 19.0.0, SVG Export Plug-In . SVG Version: 6.00 Build 0)  -->
<svg version="1.1" id="Layer_1" xmlns="http://www.w3.org/2000/svg" xmlns:xlink="http://www.w3.org/1999/xlink" x="0px" y="0px"
	 viewBox="0 0 511.999 511.999" style="enable-background:new 0 0 511.999 511.999;" xml:space="preserve">
<polygon style="fill:#595E62;" points="346.347,12.062 346.347,102.409 129.513,102.409 129.513,66.27 69.283,66.27 51.213,48.2 
	51.213,12.062 "/>
<path style="fill:#A26234;" d="M466.689,295.15c0.121,2.048,0.121,3.975,0.121,6.023c0,85.168-46.619,159.373-115.644,198.764
	H124.695C55.67,460.545,9.051,386.341,9.051,301.172c0-18.793,2.289-36.861,6.506-54.088c69.869,2.65,72.037,48.064,146.001,48.064
	c76.373,0,76.373-48.185,152.627-48.185C390.557,246.965,390.557,295.15,466.689,295.15z"/>
<path style="fill:#895329;" d="M314.184,391.52c58.901,0,72.486,28.59,110.494,41.704c26.482-37.3,42.132-82.816,42.132-132.051
	c0-2.048,0-3.975-0.121-6.023c-76.133,0-76.133-48.185-152.506-48.185c-76.254,0-76.254,48.185-152.627,48.185
	c-73.963,0-76.132-45.414-146.001-48.064c-4.215,17.226-6.504,35.295-6.504,54.087c0,32.551,6.854,63.474,19.122,91.49
	c57.809,7.271,64.159,47.042,133.384,47.042C237.93,439.705,237.93,391.52,314.184,391.52z"/>
<path style="fill:#E7ECED;" d="M346.347,102.409c69.99,37.825,118.174,108.176,120.342,192.74
	c-76.133,0-76.133-48.185-152.506-48.185c-76.253,0-76.253,48.185-152.627,48.185c-73.965,0-76.133-45.414-146.001-48.064
	c15.539-62.882,57.701-114.319,113.958-144.676C129.513,102.409,346.347,102.409,346.347,102.409z"/>
<path style="fill:#D9DEDF;" d="M238.228,102.409H129.032c-56.256,30.357-98.418,81.794-113.958,144.676
	c17.326,0.658,30.479,3.952,41.606,8.526C92.723,182.106,158.418,125.888,238.228,102.409z"/>
<path d="M445.993,21.112c3.605,2.707,12.61,10.616,21.906,27.657c21.488,39.395,25.999,93.495,25.999,131.94h18.101
	c0-142.221-56.461-175.225-58.864-176.56l-2.05-1.138H42.162v48.938L65.533,75.32h54.93v21.756
	C63.334,129.543,22.034,183.144,6.764,244.932C2.276,263.275,0,282.195,0,301.172c0,42.725,11.483,84.626,33.209,121.173
	c21.071,35.447,51.156,64.995,87.001,85.452l2.085,1.19h231.27l2.086-1.19c35.845-20.455,65.93-50.005,87.001-85.452
	c21.726-36.547,33.209-78.449,33.209-121.173c0-2.038,0-4.145-0.128-6.402C473.57,212.227,428.715,138.727,355.4,97.078V21.112
	H445.993z M73.031,57.219L60.263,44.452v-23.34h277.034v72.246H138.564V75.32H274.07V57.219H73.031z M427.093,413.096
	c-19.07,32.08-46.131,58.935-78.355,77.79H127.123c-32.225-18.855-59.285-45.71-78.355-77.79
	c-20.062-33.75-30.667-72.453-30.667-111.924c0-15,1.551-29.956,4.589-44.559c26.695,2.433,41.869,12.011,57.845,22.107
	c19.823,12.526,40.321,25.479,81.022,25.479c40.82,0,61.354-12.965,81.212-25.504c18.473-11.664,35.921-22.681,71.415-22.681
	c35.596,0,53.063,11.037,71.554,22.722c18.294,11.561,37.177,23.475,71.976,25.233C457.224,342.469,446.68,380.145,427.093,413.096z
	 M457.161,285.816c-29.173-1.792-45.043-11.821-61.754-22.38c-19.854-12.546-40.386-25.52-81.223-25.52
	c-40.73,0-61.242,12.951-81.078,25.475c-18.496,11.679-35.966,22.708-71.549,22.708c-35.46,0-52.894-11.018-71.351-22.681
	c-16.631-10.509-33.777-21.333-63-24.546c16.213-53.42,53.829-99.345,104.654-127.411h212.127
	C410.337,148.128,452.064,212.651,457.161,285.816z"/>
<rect x="292.139" y="57.223" width="24.093" height="18.101"/>
<g>
	<rect x="123.486" y="382.463" style="fill:#FFFFFF;" width="24.093" height="18.101"/>
	<rect x="159.627" y="430.648" style="fill:#FFFFFF;" width="24.093" height="18.101"/>
	<rect x="171.671" y="382.463" style="fill:#FFFFFF;" width="24.093" height="18.101"/>
	<rect x="316.226" y="418.605" style="fill:#FFFFFF;" width="24.094" height="18.101"/>
	<rect x="352.368" y="382.463" style="fill:#FFFFFF;" width="24.093" height="18.101"/>
	<rect x="292.139" y="298.148" style="fill:#FFFFFF;" width="24.093" height="18.101"/>
	<rect x="255.998" y="334.278" style="fill:#FFFFFF;" width="24.093" height="18.101"/>
</g>
<g>
</g>
<g>
</g>
<g>
</g>
<g>
</g>
<g>
</g>
<g>
</g>
<g>
</g>
<g>
</g>
<g>
</g>
<g>
</g>
<g>
</g>
<g>
</g>
<g>
</g>
<g>
</g>
<g>
</g>
</svg>
