<?xml version="1.0" encoding="iso-8859-1"?>
<!-- Generator: Adobe Illustrator 19.0.0, SVG Export Plug-In . SVG Version: 6.00 Build 0)  -->
<svg version="1.1" id="Layer_1" xmlns="http://www.w3.org/2000/svg" xmlns:xlink="http://www.w3.org/1999/xlink" x="0px" y="0px"
	 viewBox="0 0 512 512" style="enable-background:new 0 0 512 512;" xml:space="preserve">
<path style="fill:#CF8F3D;" d="M83.899,64.983h344.202v427.656c0,5.941-4.816,10.756-10.756,10.756H94.655
	c-5.941,0-10.756-4.816-10.756-10.756V64.983L83.899,64.983z"/>
<path style="fill:#663310;" d="M83.899,86.496V8.605l43.023,28.902l43.03-28.902l43.023,28.902l43.024-28.902l43.032,28.902
	l43.021-28.902l43.023,28.902l43.026-28.902v77.891h-39.334h-7.385h-39.33h-39.328h-7.388h-39.336h-39.325h-7.397h-39.325h-39.336
	h-7.383H83.899L83.899,86.496z"/>
<path style="fill:#874D20;" d="M255.999,170.995L255.999,170.995c29.976,0,54.49,24.746,54.49,54.996v21.999
	c0,30.25-24.515,54.996-54.49,54.996l0,0c-29.967,0-54.485-24.746-54.485-54.996v-22
	C201.514,195.74,226.032,170.995,255.999,170.995L255.999,170.995z"/>
<path style="fill:#663310;" d="M310.489,225.99v21.999c0,30.25-24.515,54.996-54.49,54.996c-0.368,0-0.733-0.022-1.099-0.028
	c-16.248-17.249-12.361-48.133,1.77-65.928c13.944-17.566,17.26-48.592,1.92-65.968C287.373,172.439,310.489,196.617,310.489,225.99
	z"/>
<path d="M432.148,1.012c-2.806-1.497-6.209-1.322-8.846,0.451L385.075,27.14L346.85,1.463c-2.901-1.95-6.696-1.95-9.597,0
	L299.029,27.14L260.796,1.462c-2.901-1.948-6.695-1.948-9.596,0.001L212.975,27.14L174.75,1.463c-2.901-1.95-6.694-1.95-9.597,0
	L126.922,27.14L88.698,1.463c-2.639-1.77-6.039-1.948-8.846-0.451c-2.804,1.494-4.557,4.414-4.557,7.593v56.378v21.513v406.143
	c0,10.676,8.686,19.361,19.361,19.361h322.689c10.676,0,19.361-8.686,19.361-19.361V86.496V64.983V8.605
	C436.706,5.426,434.954,2.506,432.148,1.012z M92.504,24.752l29.62,19.897c2.901,1.95,6.694,1.95,9.597,0l38.231-25.677
	l38.225,25.677c2.901,1.95,6.696,1.95,9.597,0l38.226-25.679l38.234,25.68c2.901,1.948,6.695,1.949,9.596-0.001l38.223-25.677
	l38.225,25.677c2.9,1.95,6.695,1.95,9.597,0l29.623-19.898v53.139H92.504V24.752z M417.345,494.79H94.655
	c-1.186,0-2.151-0.965-2.151-2.151V95.101h326.992v397.538C419.496,493.825,418.531,494.79,417.345,494.79z M216.391,427.039
	c0,4.752-3.853,8.605-8.605,8.605h-1.969c-4.752,0-8.605-3.853-8.605-8.605s3.853-8.605,8.605-8.605h1.969
	C212.538,418.434,216.391,422.287,216.391,427.039z M240.992,372.471c0,4.752-3.853,8.605-8.605,8.605h-1.969
	c-4.752,0-8.605-3.853-8.605-8.605c0-4.752,3.853-8.605,8.605-8.605h1.969C237.139,363.866,240.992,367.72,240.992,372.471z
	 M290.194,372.471c0,4.752-3.853,8.605-8.605,8.605h-1.969c-4.753,0-8.605-3.853-8.605-8.605c0-4.752,3.852-8.605,8.605-8.605h1.969
	C286.341,363.866,290.194,367.72,290.194,372.471z M265.595,427.039c0,4.752-3.853,8.605-8.605,8.605h-1.969
	c-4.753,0-8.605-3.853-8.605-8.605s3.852-8.605,8.605-8.605h1.969C261.742,418.434,265.595,422.287,265.595,427.039z
	 M314.794,427.039c0,4.752-3.853,8.605-8.605,8.605h-1.969c-4.752,0-8.605-3.853-8.605-8.605s3.853-8.605,8.605-8.605h1.969
	C310.942,418.434,314.794,422.287,314.794,427.039z M255.999,162.39c-0.068,0-0.133,0.004-0.201,0.005
	c-0.028,0-0.057,0.001-0.085,0.002c-34.656,0.156-62.805,28.619-62.805,63.592v21.999c0,35.07,28.303,63.602,63.09,63.602
	c34.791,0,63.095-28.531,63.095-63.602V225.99C319.094,190.92,290.79,162.39,255.999,162.39z M210.119,247.989V225.99
	c0-24.353,18.659-44.368,42.278-46.233c10.07,12.642,9.031,36.574-2.892,51.596c-8.503,10.705-13.585,25.047-13.946,39.348
	c-0.182,7.223,0.835,14.021,2.929,20.161C221.853,283.888,210.119,267.301,210.119,247.989z M301.884,247.989
	c0,24.355-18.663,44.373-42.288,46.236c-11.155-13.714-7.839-38.038,3.386-52.17c12.12-15.269,17.229-39.371,10.572-58.918
	c16.615,6.983,28.331,23.558,28.331,42.854v21.998H301.884z"/>
<g>
</g>
<g>
</g>
<g>
</g>
<g>
</g>
<g>
</g>
<g>
</g>
<g>
</g>
<g>
</g>
<g>
</g>
<g>
</g>
<g>
</g>
<g>
</g>
<g>
</g>
<g>
</g>
<g>
</g>
</svg>
